<?xml version="1.0" encoding="UTF-8"?>
<svg xmlns="http://www.w3.org/2000/svg" xmlns:xlink="http://www.w3.org/1999/xlink" width="854" height="480" viewBox="0 0 854 480">
<defs>
<g>
<g id="glyph-0-0">
<path d="M 2.523438 0.148438 C 2.191406 0.148438 1.886719 0.105469 1.601562 0.0234375 C 1.316406 -0.0585938 1.074219 -0.15625 0.878906 -0.265625 L 0.613281 0 L 0.292969 0 L 0.242188 -1.949219 L 0.570312 -1.949219 C 0.644531 -1.761719 0.738281 -1.566406 0.851562 -1.363281 C 0.964844 -1.15625 1.097656 -0.972656 1.246094 -0.808594 C 1.398438 -0.640625 1.574219 -0.5 1.765625 -0.394531 C 1.957031 -0.289062 2.179688 -0.234375 2.433594 -0.234375 C 2.777344 -0.234375 3.042969 -0.320312 3.226562 -0.488281 C 3.410156 -0.65625 3.5 -0.867188 3.5 -1.125 C 3.5 -1.335938 3.421875 -1.511719 3.269531 -1.65625 C 3.113281 -1.796875 2.871094 -1.921875 2.542969 -2.027344 C 2.332031 -2.09375 2.136719 -2.160156 1.957031 -2.21875 C 1.777344 -2.273438 1.613281 -2.335938 1.453125 -2.394531 C 1.09375 -2.539062 0.824219 -2.746094 0.648438 -3.015625 C 0.472656 -3.285156 0.382812 -3.585938 0.382812 -3.917969 C 0.382812 -4.128906 0.429688 -4.328125 0.519531 -4.523438 C 0.613281 -4.71875 0.746094 -4.890625 0.917969 -5.046875 C 1.085938 -5.191406 1.300781 -5.308594 1.5625 -5.398438 C 1.820312 -5.492188 2.105469 -5.535156 2.410156 -5.535156 C 2.710938 -5.535156 2.988281 -5.496094 3.25 -5.410156 C 3.511719 -5.328125 3.714844 -5.246094 3.867188 -5.160156 L 4.097656 -5.390625 L 4.429688 -5.390625 L 4.457031 -3.550781 L 4.132812 -3.550781 C 4.054688 -3.75 3.964844 -3.949219 3.863281 -4.15625 C 3.761719 -4.363281 3.652344 -4.535156 3.539062 -4.671875 C 3.414062 -4.820312 3.273438 -4.9375 3.109375 -5.027344 C 2.949219 -5.113281 2.757812 -5.15625 2.539062 -5.15625 C 2.265625 -5.15625 2.042969 -5.078125 1.871094 -4.925781 C 1.695312 -4.769531 1.609375 -4.578125 1.609375 -4.351562 C 1.609375 -4.136719 1.683594 -3.957031 1.835938 -3.820312 C 1.988281 -3.683594 2.222656 -3.566406 2.539062 -3.460938 C 2.726562 -3.398438 2.917969 -3.332031 3.113281 -3.269531 C 3.308594 -3.207031 3.480469 -3.144531 3.632812 -3.089844 C 4 -2.945312 4.28125 -2.75 4.472656 -2.5 C 4.664062 -2.25 4.757812 -1.941406 4.757812 -1.570312 C 4.757812 -1.335938 4.703125 -1.113281 4.59375 -0.894531 C 4.484375 -0.675781 4.339844 -0.496094 4.15625 -0.351562 C 3.953125 -0.191406 3.71875 -0.0664062 3.453125 0.0195312 C 3.1875 0.105469 2.875 0.148438 2.523438 0.148438 Z "/>
</g>
<g id="glyph-0-1">
<path d="M 5.242188 -4.789062 C 5.507812 -4.546875 5.71875 -4.253906 5.871094 -3.90625 C 6.027344 -3.5625 6.105469 -3.171875 6.105469 -2.730469 C 6.105469 -2.339844 6.039062 -1.964844 5.910156 -1.609375 C 5.777344 -1.253906 5.585938 -0.949219 5.339844 -0.695312 C 5.078125 -0.429688 4.773438 -0.222656 4.421875 -0.0742188 C 4.070312 0.0742188 3.648438 0.148438 3.164062 0.148438 C 2.769531 0.148438 2.398438 0.0820312 2.050781 -0.046875 C 1.703125 -0.175781 1.394531 -0.363281 1.128906 -0.609375 C 0.863281 -0.847656 0.65625 -1.140625 0.5 -1.484375 C 0.347656 -1.828125 0.269531 -2.210938 0.269531 -2.636719 C 0.269531 -3.074219 0.34375 -3.476562 0.496094 -3.832031 C 0.644531 -4.191406 0.851562 -4.5 1.117188 -4.753906 C 1.378906 -5.003906 1.6875 -5.199219 2.046875 -5.332031 C 2.402344 -5.46875 2.785156 -5.535156 3.191406 -5.535156 C 3.59375 -5.535156 3.96875 -5.472656 4.324219 -5.339844 C 4.675781 -5.207031 4.980469 -5.023438 5.242188 -4.789062 M 4.265625 -0.929688 C 4.378906 -1.164062 4.460938 -1.421875 4.511719 -1.714844 C 4.5625 -2.007812 4.585938 -2.335938 4.585938 -2.703125 C 4.585938 -3.015625 4.566406 -3.320312 4.519531 -3.613281 C 4.476562 -3.910156 4.402344 -4.171875 4.296875 -4.402344 C 4.1875 -4.632812 4.042969 -4.820312 3.863281 -4.960938 C 3.683594 -5.097656 3.457031 -5.167969 3.191406 -5.167969 C 2.730469 -5.167969 2.382812 -4.949219 2.144531 -4.515625 C 1.90625 -4.082031 1.789062 -3.46875 1.789062 -2.671875 C 1.789062 -2.335938 1.816406 -2.019531 1.867188 -1.71875 C 1.917969 -1.417969 2 -1.160156 2.113281 -0.933594 C 2.226562 -0.710938 2.371094 -0.535156 2.542969 -0.410156 C 2.71875 -0.28125 2.933594 -0.21875 3.191406 -0.21875 C 3.441406 -0.21875 3.65625 -0.285156 3.835938 -0.410156 C 4.015625 -0.539062 4.160156 -0.710938 4.265625 -0.929688 Z "/>
</g>
<g id="glyph-0-2">
<path d="M 5.332031 -1.726562 L 5.226562 0 L 0.261719 0 L 0.261719 -0.296875 C 0.351562 -0.304688 0.453125 -0.316406 0.574219 -0.332031 C 0.691406 -0.347656 0.769531 -0.363281 0.808594 -0.378906 C 0.898438 -0.414062 0.964844 -0.464844 1 -0.527344 C 1.035156 -0.589844 1.050781 -0.671875 1.050781 -0.769531 L 1.050781 -4.570312 C 1.050781 -4.664062 1.039062 -4.738281 1.011719 -4.796875 C 0.980469 -4.859375 0.914062 -4.910156 0.808594 -4.960938 C 0.730469 -4.996094 0.636719 -5.023438 0.527344 -5.046875 C 0.414062 -5.066406 0.328125 -5.082031 0.261719 -5.09375 L 0.261719 -5.390625 L 3.21875 -5.390625 L 3.21875 -5.09375 C 3.140625 -5.085938 3.042969 -5.074219 2.933594 -5.058594 C 2.824219 -5.046875 2.726562 -5.027344 2.648438 -5 C 2.546875 -4.96875 2.480469 -4.917969 2.449219 -4.847656 C 2.417969 -4.777344 2.398438 -4.699219 2.398438 -4.609375 L 2.398438 -1.066406 C 2.398438 -0.898438 2.410156 -0.769531 2.433594 -0.671875 C 2.457031 -0.574219 2.5 -0.503906 2.566406 -0.460938 C 2.632812 -0.410156 2.726562 -0.378906 2.84375 -0.367188 C 2.960938 -0.351562 3.121094 -0.34375 3.332031 -0.34375 C 3.53125 -0.34375 3.730469 -0.359375 3.921875 -0.382812 C 4.113281 -0.40625 4.25 -0.457031 4.332031 -0.539062 C 4.460938 -0.667969 4.59375 -0.851562 4.730469 -1.085938 C 4.867188 -1.320312 4.972656 -1.53125 5.054688 -1.726562 Z "/>
</g>
<g id="glyph-0-3">
<path d="M 6.46875 -5.09375 C 6.394531 -5.085938 6.289062 -5.066406 6.148438 -5.042969 C 6.011719 -5.015625 5.894531 -4.96875 5.800781 -4.902344 C 5.707031 -4.839844 5.640625 -4.726562 5.597656 -4.5625 C 5.558594 -4.394531 5.539062 -4.148438 5.539062 -3.820312 L 5.539062 -1.816406 C 5.539062 -1.226562 5.339844 -0.75 4.941406 -0.390625 C 4.539062 -0.03125 4.011719 0.148438 3.351562 0.148438 C 2.585938 0.148438 1.992188 -0.0234375 1.570312 -0.371094 C 1.152344 -0.71875 0.941406 -1.203125 0.941406 -1.824219 L 0.941406 -4.578125 C 0.941406 -4.667969 0.925781 -4.746094 0.890625 -4.808594 C 0.855469 -4.871094 0.792969 -4.929688 0.695312 -4.980469 C 0.628906 -5.011719 0.546875 -5.039062 0.453125 -5.058594 C 0.355469 -5.078125 0.277344 -5.09375 0.214844 -5.101562 L 0.214844 -5.390625 L 3.042969 -5.390625 L 3.042969 -5.101562 C 2.960938 -5.09375 2.878906 -5.085938 2.796875 -5.070312 C 2.710938 -5.058594 2.625 -5.035156 2.539062 -5.007812 C 2.445312 -4.980469 2.378906 -4.929688 2.347656 -4.855469 C 2.3125 -4.785156 2.296875 -4.707031 2.296875 -4.617188 L 2.296875 -1.898438 C 2.296875 -1.363281 2.414062 -0.976562 2.648438 -0.734375 C 2.886719 -0.488281 3.226562 -0.367188 3.675781 -0.367188 C 4.113281 -0.367188 4.460938 -0.503906 4.710938 -0.769531 C 4.960938 -1.039062 5.085938 -1.433594 5.085938 -1.957031 L 5.085938 -3.78125 C 5.085938 -4.105469 5.0625 -4.347656 5.019531 -4.507812 C 4.972656 -4.671875 4.90625 -4.785156 4.816406 -4.855469 C 4.75 -4.914062 4.636719 -4.964844 4.472656 -5.007812 C 4.308594 -5.054688 4.195312 -5.082031 4.128906 -5.09375 L 4.128906 -5.390625 L 6.46875 -5.390625 Z "/>
</g>
<g id="glyph-0-4">
<path d="M 3.085938 0.148438 C 2.691406 0.148438 2.324219 0.0859375 1.976562 -0.0429688 C 1.632812 -0.171875 1.335938 -0.359375 1.078125 -0.601562 C 0.828125 -0.839844 0.628906 -1.132812 0.484375 -1.484375 C 0.339844 -1.835938 0.269531 -2.222656 0.269531 -2.644531 C 0.269531 -3.0625 0.34375 -3.449219 0.488281 -3.804688 C 0.632812 -4.160156 0.839844 -4.46875 1.101562 -4.730469 C 1.359375 -4.988281 1.667969 -5.183594 2.03125 -5.324219 C 2.394531 -5.464844 2.78125 -5.535156 3.195312 -5.535156 C 3.492188 -5.535156 3.765625 -5.5 4.011719 -5.425781 C 4.253906 -5.351562 4.464844 -5.269531 4.632812 -5.179688 L 4.867188 -5.390625 L 5.199219 -5.390625 L 5.234375 -3.421875 L 4.898438 -3.421875 C 4.710938 -4.023438 4.480469 -4.464844 4.214844 -4.746094 C 3.949219 -5.027344 3.625 -5.167969 3.246094 -5.167969 C 2.769531 -5.167969 2.40625 -4.957031 2.160156 -4.539062 C 1.914062 -4.121094 1.789062 -3.53125 1.789062 -2.773438 C 1.789062 -2.34375 1.832031 -1.976562 1.914062 -1.675781 C 2 -1.371094 2.109375 -1.128906 2.246094 -0.941406 C 2.394531 -0.75 2.566406 -0.609375 2.765625 -0.519531 C 2.96875 -0.429688 3.1875 -0.382812 3.429688 -0.382812 C 3.785156 -0.382812 4.101562 -0.480469 4.378906 -0.671875 C 4.65625 -0.863281 4.90625 -1.15625 5.132812 -1.546875 L 5.460938 -1.347656 C 5.351562 -1.125 5.226562 -0.925781 5.089844 -0.75 C 4.949219 -0.574219 4.789062 -0.421875 4.605469 -0.296875 C 4.40625 -0.15625 4.183594 -0.046875 3.945312 0.03125 C 3.703125 0.109375 3.417969 0.148438 3.085938 0.148438 Z "/>
</g>
<g id="glyph-0-5">
<path d="M 3.226562 0 L 0.238281 0 L 0.238281 -0.296875 C 0.308594 -0.300781 0.410156 -0.308594 0.542969 -0.320312 C 0.675781 -0.328125 0.765625 -0.34375 0.816406 -0.363281 C 0.910156 -0.402344 0.972656 -0.453125 1.007812 -0.515625 C 1.042969 -0.578125 1.058594 -0.65625 1.058594 -0.75 L 1.058594 -4.570312 C 1.058594 -4.660156 1.042969 -4.734375 1.011719 -4.800781 C 0.976562 -4.867188 0.914062 -4.917969 0.816406 -4.960938 C 0.753906 -4.984375 0.664062 -5.011719 0.546875 -5.039062 C 0.429688 -5.0625 0.324219 -5.082031 0.238281 -5.09375 L 0.238281 -5.390625 L 3.226562 -5.390625 L 3.226562 -5.09375 C 3.152344 -5.085938 3.058594 -5.074219 2.941406 -5.058594 C 2.828125 -5.046875 2.734375 -5.027344 2.65625 -5 C 2.554688 -4.96875 2.488281 -4.917969 2.457031 -4.847656 C 2.425781 -4.777344 2.40625 -4.699219 2.40625 -4.609375 L 2.40625 -0.792969 C 2.40625 -0.703125 2.425781 -0.625 2.457031 -0.558594 C 2.492188 -0.496094 2.558594 -0.441406 2.65625 -0.402344 C 2.707031 -0.378906 2.796875 -0.359375 2.917969 -0.335938 C 3.042969 -0.316406 3.144531 -0.300781 3.226562 -0.296875 Z "/>
</g>
<g id="glyph-0-6">
<path d="M 5.242188 -4.789062 C 5.507812 -4.546875 5.71875 -4.253906 5.871094 -3.90625 C 6.027344 -3.5625 6.105469 -3.171875 6.105469 -2.730469 C 6.105469 -2.339844 6.039062 -1.964844 5.910156 -1.609375 C 5.777344 -1.253906 5.585938 -0.949219 5.339844 -0.695312 C 5.078125 -0.429688 4.773438 -0.222656 4.421875 -0.0742188 C 4.070312 0.0742188 3.648438 0.148438 3.164062 0.148438 C 2.769531 0.148438 2.398438 0.0820312 2.050781 -0.046875 C 1.703125 -0.175781 1.394531 -0.363281 1.128906 -0.609375 C 0.863281 -0.847656 0.65625 -1.140625 0.5 -1.484375 C 0.347656 -1.828125 0.269531 -2.210938 0.269531 -2.636719 C 0.269531 -3.074219 0.34375 -3.476562 0.496094 -3.832031 C 0.644531 -4.191406 0.851562 -4.5 1.117188 -4.753906 C 1.378906 -5.003906 1.6875 -5.199219 2.046875 -5.332031 C 2.402344 -5.46875 2.785156 -5.535156 3.191406 -5.535156 C 3.59375 -5.535156 3.96875 -5.472656 4.324219 -5.339844 C 4.675781 -5.207031 4.980469 -5.023438 5.242188 -4.789062 M 4.265625 -0.929688 C 4.378906 -1.164062 4.460938 -1.421875 4.511719 -1.714844 C 4.5625 -2.007812 4.585938 -2.335938 4.585938 -2.703125 C 4.585938 -3.015625 4.566406 -3.320312 4.519531 -3.613281 C 4.476562 -3.910156 4.402344 -4.171875 4.296875 -4.402344 C 4.1875 -4.632812 4.042969 -4.820312 3.863281 -4.960938 C 3.683594 -5.097656 3.457031 -5.167969 3.191406 -5.167969 C 2.730469 -5.167969 2.382812 -4.949219 2.144531 -4.515625 C 1.90625 -4.082031 1.789062 -3.46875 1.789062 -2.671875 C 1.789062 -2.335938 1.816406 -2.019531 1.867188 -1.71875 C 1.917969 -1.417969 2 -1.160156 2.113281 -0.933594 C 2.226562 -0.710938 2.371094 -0.535156 2.542969 -0.410156 C 2.71875 -0.28125 2.933594 -0.21875 3.191406 -0.21875 C 3.441406 -0.21875 3.65625 -0.285156 3.835938 -0.410156 C 4.015625 -0.539062 4.160156 -0.710938 4.265625 -0.929688 M 4.171875 -6.714844 C 4.171875 -6.609375 4.140625 -6.519531 4.074219 -6.453125 C 4.007812 -6.382812 3.914062 -6.324219 3.789062 -6.273438 C 3.648438 -6.214844 3.433594 -6.132812 3.152344 -6.03125 C 2.867188 -5.925781 2.539062 -5.796875 2.164062 -5.640625 L 2.039062 -5.796875 C 2.296875 -6.039062 2.492188 -6.230469 2.628906 -6.367188 C 2.761719 -6.503906 2.902344 -6.652344 3.046875 -6.804688 C 3.140625 -6.90625 3.234375 -6.980469 3.324219 -7.027344 C 3.410156 -7.070312 3.503906 -7.09375 3.605469 -7.09375 C 3.769531 -7.09375 3.90625 -7.058594 4.011719 -6.988281 C 4.121094 -6.917969 4.171875 -6.828125 4.171875 -6.714844 Z "/>
</g>
<g id="glyph-0-7">
<path d="M 6.453125 -5.09375 C 6.382812 -5.085938 6.28125 -5.070312 6.148438 -5.050781 C 6.015625 -5.03125 5.898438 -4.980469 5.792969 -4.902344 C 5.699219 -4.835938 5.632812 -4.71875 5.59375 -4.550781 C 5.550781 -4.386719 5.53125 -4.140625 5.53125 -3.820312 L 5.53125 0.03125 L 4.855469 0.03125 L 1.5 -4.136719 L 1.5 -1.605469 C 1.5 -1.292969 1.519531 -1.054688 1.5625 -0.890625 C 1.605469 -0.726562 1.671875 -0.609375 1.765625 -0.53125 C 1.835938 -0.476562 1.941406 -0.425781 2.09375 -0.382812 C 2.242188 -0.339844 2.359375 -0.3125 2.449219 -0.296875 L 2.449219 0 L 0.132812 0 L 0.132812 -0.296875 C 0.230469 -0.304688 0.34375 -0.320312 0.472656 -0.351562 C 0.601562 -0.378906 0.707031 -0.425781 0.792969 -0.484375 C 0.890625 -0.558594 0.960938 -0.671875 0.996094 -0.820312 C 1.035156 -0.964844 1.050781 -1.214844 1.050781 -1.566406 L 1.050781 -4.117188 C 1.050781 -4.242188 1.03125 -4.363281 0.992188 -4.476562 C 0.953125 -4.589844 0.890625 -4.683594 0.808594 -4.765625 C 0.71875 -4.851562 0.617188 -4.917969 0.503906 -4.96875 C 0.386719 -5.019531 0.257812 -5.058594 0.109375 -5.085938 L 0.109375 -5.390625 L 2.136719 -5.390625 L 5.085938 -1.746094 L 5.085938 -3.78125 C 5.085938 -4.105469 5.0625 -4.347656 5.019531 -4.507812 C 4.976562 -4.664062 4.910156 -4.78125 4.816406 -4.855469 C 4.742188 -4.914062 4.632812 -4.964844 4.488281 -5.007812 C 4.34375 -5.046875 4.226562 -5.078125 4.140625 -5.09375 L 4.140625 -5.390625 L 6.453125 -5.390625 Z "/>
</g>
</g>
</defs>
<g fill="rgb(34.509804%, 76.862745%, 86.666667%)" fill-opacity="1">
<use xlink:href="#glyph-0-0" x="30" y="27.131836"/>
<use xlink:href="#glyph-0-1" x="35" y="27.131836"/>
<use xlink:href="#glyph-0-2" x="41" y="27.131836"/>
<use xlink:href="#glyph-0-3" x="46" y="27.131836"/>
<use xlink:href="#glyph-0-4" x="52" y="27.131836"/>
<use xlink:href="#glyph-0-5" x="58" y="27.131836"/>
<use xlink:href="#glyph-0-6" x="61" y="27.131836"/>
<use xlink:href="#glyph-0-7" x="67" y="27.131836"/>
</g>
</svg>
